<?xml version="1.0" ?><svg xmlns="http://www.w3.org/2000/svg" xmlns:xlink="http://www.w3.org/1999/xlink" version="1.1" id="Layer_1" viewBox="0 0 512 512" style="enable-background:new 0 0 512 512;" xml:space="preserve"><path id="XMLID_117_" style="fill:#E59C37;" d="M483.29,161.56c0,26.444-40,26.478-40,0C443.29,135.08,483.29,135.111,483.29,161.56  z"/><circle id="XMLID_116_" style="fill:#7A9FF1;" cx="256.85" cy="256" r="40"/><path id="XMLID_115_" style="fill:#E06C6C;" d="M111.25,438.04c-10.332,6.755-23.333,2.754-28.69-7.23  c-0.01-0.01-0.02-0.03-0.02-0.04c-11.938-22.511,22.945-42.729,35.39-18.63C122.711,421.36,119.591,432.586,111.25,438.04z"/><path id="XMLID_114_" style="fill:#5272D0;" d="M102.26,401.48"/><path id="XMLID_113_" style="fill:#5272D0;" d="M81.32,414.75"/><path id="XMLID_112_" style="fill:#5272D0;" d="M81.32,414.75"/><path id="XMLID_111_" style="fill:#7FDA86;" d="M68.71,140.93c0,26.476-40,26.441-40,0C28.71,114.467,68.71,114.463,68.71,140.93z"/><path id="XMLID_710_" d="M256.852,206c-27.57,0-50,22.43-50,50s22.43,50,50,50s50-22.43,50-50S284.422,206,256.852,206z   M256.852,286c-16.542,0-30-13.458-30-30s13.458-30,30-30s30,13.458,30,30S273.394,286,256.852,286z"/><path id="XMLID_692_" d="M493.289,161.563c0-12.651-7.875-23.489-18.977-27.893c-4.466-31.377-28.855-49.684-63.132-53.408  c-19.436-2.112-42.148,0.119-67.599,6.603C328.082,47.444,299.431,1,256.852,1c-42.544,0-71.205,46.373-86.73,85.864  c-25.452-6.484-48.163-8.715-67.598-6.602c-22.937,2.492-43.862,11.77-55.239,30.703c-15.882,0.747-28.574,13.9-28.574,29.964  c0,14.29,10.047,26.271,23.446,29.27c7.015,27.406,23.823,56.896,47.152,85.872c-48.48,60.441-63.292,115.683-39.526,148.747  c6.412,8.917,14.432,14.407,20.439,17.621c0.564,16.049,13.788,28.934,29.973,28.934c12.747,0,23.656-7.995,27.993-19.231  c8.179-0.501,22.409-2.023,41.94-6.99C185.69,464.731,214.357,511,256.852,511c42.534,0,71.192-46.349,86.728-85.857  c21.94,5.59,45.651,8.982,67.602,6.594c23.694-2.574,41.933-11.883,52.741-26.92c23.776-33.077,8.942-88.35-39.586-148.82  c16.404-20.405,30.605-42.307,39.909-64.459C480.345,191.03,493.289,177.784,493.289,161.563z M463.289,171.563  c-5.514,0-10-4.486-10-10s4.486-10,10-10s10,4.486,10,10S468.803,171.563,463.289,171.563z M447.68,118.854  c2.956,4.115,5.018,8.886,6.201,14.228c-11.946,3.957-20.591,15.225-20.591,28.48c0,9.716,4.646,18.364,11.83,23.85  c-7.506,17.287-19.063,36.013-33.949,55.002c-12.68-14.28-26.872-28.354-42.172-41.882c-3.327-32.867-9.551-64.493-18.668-92.741  C397.34,94.209,433.34,98.902,447.68,118.854z M331.082,400.749c-17.49-5.575-35.324-12.868-53.079-21.531  c23.985-13.975,47.199-29.939,68.565-46.923C343.104,356.51,337.942,379.67,331.082,400.749z M256.843,368.232  c-32.787-18.045-64.699-40.338-92.981-64.61c-2.705-31.401-2.706-63.835,0-95.237c28.149-24.217,59.949-46.537,92.863-64.643  c32.357,17.78,64.372,39.924,93.113,64.585c2.711,31.434,2.712,63.904,0.001,95.338C320.787,328.59,288.682,350.717,256.843,368.232  z M235.681,379.194c-16.539,8.046-34.647,15.645-53.062,21.55c-6.863-21.09-12.027-44.262-15.491-68.49  C188.747,349.444,211.918,365.344,235.681,379.194z M142.523,284.265c-9.65-9.263-18.711-18.712-27.043-28.237  c8.333-9.513,17.392-18.964,27.04-28.24C141.608,246.551,141.608,265.502,142.523,284.265z M182.62,111.253  c17.249,5.509,35.087,12.795,53.018,21.547c-23.768,13.852-46.924,29.751-68.507,46.924  C170.596,155.504,175.758,132.338,182.62,111.253z M346.572,179.728c-21.585-17.178-44.772-33.11-68.609-46.997  c17.675-8.606,35.508-15.875,53.12-21.477C337.945,132.339,343.108,155.505,346.572,179.728z M371.178,227.689  c9.578,9.204,18.646,18.666,27.067,28.304c-8.452,9.673-17.517,19.139-27.067,28.315  C372.097,265.497,372.096,246.498,371.178,227.689z M256.852,21c31.773,0,55.472,41.652,67.423,71.432  c-22.23,7.143-44.963,16.894-67.415,28.635c-22.419-11.725-45.152-21.479-67.43-28.636C201.336,62.754,225.039,21,256.852,21z   M163.373,105.791c-9.118,28.249-15.341,59.873-18.668,92.736c-15.278,13.508-29.469,27.58-42.171,41.888  c-20.176-25.75-34.163-50.979-40.331-72.704c19.671-9.951,22.278-36.809,4.999-50.379C82.266,98.677,117.59,94.512,163.373,105.791z   M48.711,130.929c5.514,0,10,4.486,10,10s-4.486,10-10,10s-10-4.486-10-10S43.197,130.929,48.711,130.929z M100.194,411.373  c5.512,0,9.997,4.484,10,9.996c-0.002,5.512-4.488,9.996-10,9.996s-9.997-4.484-10-9.996  C90.197,415.857,94.682,411.373,100.194,411.373z M128.703,412.038c-3.932-11.989-15.222-20.674-28.508-20.674  c-9.604,0-18.162,4.541-23.656,11.584c-20.232-12.943-21.326-37.216-13.093-62.819c6.96-21.643,20.625-45.053,39.061-68.49  c12.732,14.295,26.933,28.342,42.199,41.824c3.328,32.876,9.553,64.51,18.674,92.765  C151.653,409.131,139.987,411.176,128.703,412.038z M256.852,491c-31.811,0-55.515-41.753-67.417-71.418  c19.052-6.124,41.675-15.2,67.431-28.668c22.469,11.755,45.2,21.511,67.41,28.649C312.368,449.247,288.664,491,256.852,491z   M450.259,340.129c5.01,15.58,8.63,37.425-2.577,53.015c-14.342,19.954-50.342,24.647-97.351,13.066  c9.115-28.24,15.336-59.852,18.664-92.703c14.092-12.465,28.577-26.639,42.16-41.932  C430.094,295.718,443.544,319.248,450.259,340.129z"/><g id="Layer_1_1_"/><g id="Layer_1_2_"/></svg>